<mxfile host="app.diagrams.net" modified="2024-05-14T09:09:31.049Z" agent="Mozilla/5.0 (Windows NT 10.0; Win64; x64) AppleWebKit/537.36 (KHTML, like Gecko) Chrome/124.0.0.0 Safari/537.36" etag="S9qUAkR9zSvpeIkZcSPS" version="24.4.0" type="device">
  <diagram id="R2lEEEUBdFMjLlhIrx00" name="Page-1">
    <mxGraphModel dx="850" dy="528" grid="1" gridSize="10" guides="1" tooltips="1" connect="1" arrows="1" fold="1" page="1" pageScale="1" pageWidth="850" pageHeight="1100" math="0" shadow="0" extFonts="Permanent Marker^https://fonts.googleapis.com/css?family=Permanent+Marker">
      <root>
        <mxCell id="0" />
        <mxCell id="1" parent="0" />
        <mxCell id="BXfX2sPfwJoqlkLl3I13-1" value="Subcription" style="rounded=0;whiteSpace=wrap;html=1;fillColor=#dae8fc;strokeColor=#6c8ebf;" parent="1" vertex="1">
          <mxGeometry x="300" y="190" width="120" height="40" as="geometry" />
        </mxCell>
        <mxCell id="BXfX2sPfwJoqlkLl3I13-2" value="Account" style="rounded=0;whiteSpace=wrap;html=1;fillColor=#f8cecc;strokeColor=#b85450;" parent="1" vertex="1">
          <mxGeometry x="630" y="190" width="120" height="40" as="geometry" />
        </mxCell>
        <mxCell id="BXfX2sPfwJoqlkLl3I13-3" value="" style="whiteSpace=wrap;html=1;fillColor=#d5e8d4;strokeColor=#82b366;" parent="1" vertex="1">
          <mxGeometry x="1050" y="190" width="120" height="40" as="geometry" />
        </mxCell>
        <mxCell id="BXfX2sPfwJoqlkLl3I13-4" value="" style="whiteSpace=wrap;html=1;fillColor=#ffe6cc;strokeColor=#d79b00;" parent="1" vertex="1">
          <mxGeometry x="1490" y="190" width="120" height="40" as="geometry" />
        </mxCell>
        <mxCell id="BXfX2sPfwJoqlkLl3I13-5" value="Title" style="whiteSpace=wrap;html=1;fillColor=#e1d5e7;strokeColor=#9673a6;" parent="1" vertex="1">
          <mxGeometry x="1050" y="500" width="120" height="40" as="geometry" />
        </mxCell>
        <mxCell id="ndwgXnCIKZq1DW0BV6WI-14" style="edgeStyle=none;rounded=0;orthogonalLoop=1;jettySize=auto;html=1;exitX=1;exitY=0.5;exitDx=0;exitDy=0;entryX=0;entryY=1;entryDx=0;entryDy=0;strokeColor=default;align=center;verticalAlign=middle;fontFamily=Helvetica;fontSize=11;fontColor=default;labelBackgroundColor=default;endArrow=none;endFill=0;" parent="1" source="BXfX2sPfwJoqlkLl3I13-6" target="ndwgXnCIKZq1DW0BV6WI-3" edge="1">
          <mxGeometry relative="1" as="geometry" />
        </mxCell>
        <mxCell id="BXfX2sPfwJoqlkLl3I13-6" value="Movie" style="whiteSpace=wrap;html=1;fillColor=#e1d5e7;strokeColor=#9673a6;" parent="1" vertex="1">
          <mxGeometry x="455" y="610" width="120" height="40" as="geometry" />
        </mxCell>
        <mxCell id="BXfX2sPfwJoqlkLl3I13-7" value="Series" style="whiteSpace=wrap;html=1;fillColor=#e1d5e7;strokeColor=#9673a6;" parent="1" vertex="1">
          <mxGeometry x="455" y="410" width="120" height="40" as="geometry" />
        </mxCell>
        <mxCell id="BXfX2sPfwJoqlkLl3I13-8" value="&lt;u&gt;subscription_id&lt;/u&gt;" style="ellipse;whiteSpace=wrap;html=1;" parent="1" vertex="1">
          <mxGeometry x="320" y="120" width="110" height="50" as="geometry" />
        </mxCell>
        <mxCell id="ndwgXnCIKZq1DW0BV6WI-19" style="edgeStyle=none;rounded=0;orthogonalLoop=1;jettySize=auto;html=1;exitX=1;exitY=1;exitDx=0;exitDy=0;strokeColor=default;align=center;verticalAlign=middle;fontFamily=Helvetica;fontSize=11;fontColor=default;labelBackgroundColor=default;endArrow=none;endFill=0;" parent="1" source="BXfX2sPfwJoqlkLl3I13-11" target="BXfX2sPfwJoqlkLl3I13-1" edge="1">
          <mxGeometry relative="1" as="geometry" />
        </mxCell>
        <mxCell id="BXfX2sPfwJoqlkLl3I13-11" value="subscription_type" style="ellipse;whiteSpace=wrap;html=1;" parent="1" vertex="1">
          <mxGeometry x="190" y="120" width="110" height="50" as="geometry" />
        </mxCell>
        <mxCell id="4RAcwE54EBoy_HI3zGKQ-59" style="edgeStyle=none;rounded=0;orthogonalLoop=1;jettySize=auto;html=1;exitX=0.5;exitY=1;exitDx=0;exitDy=0;entryX=0.5;entryY=0;entryDx=0;entryDy=0;strokeColor=default;align=center;verticalAlign=middle;fontFamily=Helvetica;fontSize=11;fontColor=default;labelBackgroundColor=default;endArrow=none;endFill=0;" parent="1" source="BXfX2sPfwJoqlkLl3I13-12" target="BXfX2sPfwJoqlkLl3I13-2" edge="1">
          <mxGeometry relative="1" as="geometry" />
        </mxCell>
        <mxCell id="BXfX2sPfwJoqlkLl3I13-12" value="&lt;u&gt;account_id&lt;/u&gt;" style="ellipse;whiteSpace=wrap;html=1;" parent="1" vertex="1">
          <mxGeometry x="635" y="102.5" width="110" height="50" as="geometry" />
        </mxCell>
        <mxCell id="BXfX2sPfwJoqlkLl3I13-13" value="name" style="ellipse;whiteSpace=wrap;html=1;" parent="1" vertex="1">
          <mxGeometry x="750" y="102.5" width="110" height="50" as="geometry" />
        </mxCell>
        <mxCell id="4RAcwE54EBoy_HI3zGKQ-55" style="edgeStyle=none;rounded=0;orthogonalLoop=1;jettySize=auto;html=1;exitX=0;exitY=0;exitDx=0;exitDy=0;entryX=0.75;entryY=1;entryDx=0;entryDy=0;strokeColor=default;align=center;verticalAlign=middle;fontFamily=Helvetica;fontSize=11;fontColor=default;labelBackgroundColor=default;endArrow=none;endFill=0;" parent="1" source="BXfX2sPfwJoqlkLl3I13-15" target="BXfX2sPfwJoqlkLl3I13-2" edge="1">
          <mxGeometry relative="1" as="geometry" />
        </mxCell>
        <mxCell id="BXfX2sPfwJoqlkLl3I13-15" value="notif_pref" style="ellipse;whiteSpace=wrap;html=1;" parent="1" vertex="1">
          <mxGeometry x="800" y="270" width="110" height="50" as="geometry" />
        </mxCell>
        <mxCell id="4RAcwE54EBoy_HI3zGKQ-56" style="edgeStyle=none;rounded=0;orthogonalLoop=1;jettySize=auto;html=1;exitX=0.5;exitY=0;exitDx=0;exitDy=0;strokeColor=default;align=center;verticalAlign=middle;fontFamily=Helvetica;fontSize=11;fontColor=default;labelBackgroundColor=default;endArrow=none;endFill=0;" parent="1" source="BXfX2sPfwJoqlkLl3I13-16" target="BXfX2sPfwJoqlkLl3I13-2" edge="1">
          <mxGeometry relative="1" as="geometry" />
        </mxCell>
        <mxCell id="BXfX2sPfwJoqlkLl3I13-16" value="password" style="ellipse;whiteSpace=wrap;html=1;" parent="1" vertex="1">
          <mxGeometry x="690" y="270" width="110" height="50" as="geometry" />
        </mxCell>
        <mxCell id="4RAcwE54EBoy_HI3zGKQ-54" style="edgeStyle=none;rounded=0;orthogonalLoop=1;jettySize=auto;html=1;exitX=0.5;exitY=0;exitDx=0;exitDy=0;strokeColor=default;align=center;verticalAlign=middle;fontFamily=Helvetica;fontSize=11;fontColor=default;labelBackgroundColor=default;endArrow=none;endFill=0;" parent="1" source="BXfX2sPfwJoqlkLl3I13-17" target="BXfX2sPfwJoqlkLl3I13-2" edge="1">
          <mxGeometry relative="1" as="geometry" />
        </mxCell>
        <mxCell id="BXfX2sPfwJoqlkLl3I13-17" value="email&lt;span style=&quot;color: rgba(0, 0, 0, 0); font-family: monospace; font-size: 0px; text-align: start; text-wrap: nowrap;&quot;&gt;%3CmxGraphModel%3E%3Croot%3E%3CmxCell%20id%3D%220%22%2F%3E%3CmxCell%20id%3D%221%22%20parent%3D%220%22%2F%3E%3CmxCell%20id%3D%222%22%20value%3D%22user_id%22%20style%3D%22ellipse%3BwhiteSpace%3Dwrap%3Bhtml%3D1%3B%22%20vertex%3D%221%22%20parent%3D%221%22%3E%3CmxGeometry%20x%3D%22300%22%20y%3D%22500%22%20width%3D%22110%22%20height%3D%2250%22%20as%3D%22geometry%22%2F%3E%3C%2FmxCell%3E%3C%2Froot%3E%3C%2FmxGraphModel%3E&lt;/span&gt;&lt;span style=&quot;color: rgba(0, 0, 0, 0); font-family: monospace; font-size: 0px; text-align: start; text-wrap: nowrap;&quot;&gt;%3CmxGraphModel%3E%3Croot%3E%3CmxCell%20id%3D%220%22%2F%3E%3CmxCell%20id%3D%221%22%20parent%3D%220%22%2F%3E%3CmxCell%20id%3D%222%22%20value%3D%22user_id%22%20style%3D%22ellipse%3BwhiteSpace%3Dwrap%3Bhtml%3D1%3B%22%20vertex%3D%221%22%20parent%3D%221%22%3E%3CmxGeometry%20x%3D%22300%22%20y%3D%22500%22%20width%3D%22110%22%20height%3D%2250%22%20as%3D%22geometry%22%2F%3E%3C%2FmxCell%3E%3C%2Froot%3E%3C%2FmxGraphModel%3E&lt;/span&gt;" style="ellipse;whiteSpace=wrap;html=1;" parent="1" vertex="1">
          <mxGeometry x="580" y="270" width="110" height="50" as="geometry" />
        </mxCell>
        <mxCell id="4RAcwE54EBoy_HI3zGKQ-53" style="rounded=0;orthogonalLoop=1;jettySize=auto;html=1;exitX=1;exitY=0;exitDx=0;exitDy=0;entryX=0.25;entryY=1;entryDx=0;entryDy=0;endArrow=none;endFill=0;" parent="1" source="BXfX2sPfwJoqlkLl3I13-18" target="BXfX2sPfwJoqlkLl3I13-2" edge="1">
          <mxGeometry relative="1" as="geometry" />
        </mxCell>
        <mxCell id="BXfX2sPfwJoqlkLl3I13-18" value="phone" style="ellipse;whiteSpace=wrap;html=1;" parent="1" vertex="1">
          <mxGeometry x="470" y="270" width="110" height="50" as="geometry" />
        </mxCell>
        <mxCell id="BXfX2sPfwJoqlkLl3I13-19" value="subscription_id" style="ellipse;whiteSpace=wrap;html=1;" parent="1" vertex="1">
          <mxGeometry x="520" y="102.5" width="110" height="50" as="geometry" />
        </mxCell>
        <mxCell id="4RAcwE54EBoy_HI3zGKQ-62" style="edgeStyle=none;rounded=0;orthogonalLoop=1;jettySize=auto;html=1;exitX=0.5;exitY=1;exitDx=0;exitDy=0;entryX=0;entryY=0;entryDx=0;entryDy=0;strokeColor=default;align=center;verticalAlign=middle;fontFamily=Helvetica;fontSize=11;fontColor=default;labelBackgroundColor=default;endArrow=none;endFill=0;" parent="1" source="BXfX2sPfwJoqlkLl3I13-20" target="BXfX2sPfwJoqlkLl3I13-13" edge="1">
          <mxGeometry relative="1" as="geometry" />
        </mxCell>
        <mxCell id="BXfX2sPfwJoqlkLl3I13-20" value="fname" style="ellipse;whiteSpace=wrap;html=1;" parent="1" vertex="1">
          <mxGeometry x="690" y="27.5" width="110" height="50" as="geometry" />
        </mxCell>
        <mxCell id="4RAcwE54EBoy_HI3zGKQ-63" style="edgeStyle=none;rounded=0;orthogonalLoop=1;jettySize=auto;html=1;exitX=0.5;exitY=1;exitDx=0;exitDy=0;entryX=1;entryY=0;entryDx=0;entryDy=0;strokeColor=default;align=center;verticalAlign=middle;fontFamily=Helvetica;fontSize=11;fontColor=default;labelBackgroundColor=default;endArrow=none;endFill=0;" parent="1" source="BXfX2sPfwJoqlkLl3I13-21" target="BXfX2sPfwJoqlkLl3I13-13" edge="1">
          <mxGeometry relative="1" as="geometry" />
        </mxCell>
        <mxCell id="BXfX2sPfwJoqlkLl3I13-21" value="sname" style="ellipse;whiteSpace=wrap;html=1;" parent="1" vertex="1">
          <mxGeometry x="810" y="27.5" width="110" height="50" as="geometry" />
        </mxCell>
        <mxCell id="4RAcwE54EBoy_HI3zGKQ-67" style="edgeStyle=none;rounded=0;orthogonalLoop=1;jettySize=auto;html=1;exitX=0;exitY=1;exitDx=0;exitDy=0;entryX=0.75;entryY=0;entryDx=0;entryDy=0;strokeColor=default;align=center;verticalAlign=middle;fontFamily=Helvetica;fontSize=11;fontColor=default;labelBackgroundColor=default;endArrow=none;endFill=0;" parent="1" source="BXfX2sPfwJoqlkLl3I13-22" target="BXfX2sPfwJoqlkLl3I13-3" edge="1">
          <mxGeometry relative="1" as="geometry" />
        </mxCell>
        <mxCell id="BXfX2sPfwJoqlkLl3I13-22" value="account_id" style="ellipse;whiteSpace=wrap;html=1;" parent="1" vertex="1">
          <mxGeometry x="1167.5" y="102.5" width="110" height="50" as="geometry" />
        </mxCell>
        <mxCell id="4RAcwE54EBoy_HI3zGKQ-64" style="edgeStyle=none;rounded=0;orthogonalLoop=1;jettySize=auto;html=1;exitX=1;exitY=1;exitDx=0;exitDy=0;entryX=0.25;entryY=0;entryDx=0;entryDy=0;strokeColor=default;align=center;verticalAlign=middle;fontFamily=Helvetica;fontSize=11;fontColor=default;labelBackgroundColor=default;endArrow=none;endFill=0;" parent="1" source="BXfX2sPfwJoqlkLl3I13-23" target="BXfX2sPfwJoqlkLl3I13-3" edge="1">
          <mxGeometry relative="1" as="geometry" />
        </mxCell>
        <mxCell id="BXfX2sPfwJoqlkLl3I13-23" value="&lt;u&gt;profile_id&lt;/u&gt;" style="ellipse;whiteSpace=wrap;html=1;" parent="1" vertex="1">
          <mxGeometry x="942.5" y="102.5" width="110" height="50" as="geometry" />
        </mxCell>
        <mxCell id="4RAcwE54EBoy_HI3zGKQ-66" style="edgeStyle=none;rounded=0;orthogonalLoop=1;jettySize=auto;html=1;exitX=0.5;exitY=1;exitDx=0;exitDy=0;entryX=0.5;entryY=0;entryDx=0;entryDy=0;strokeColor=default;align=center;verticalAlign=middle;fontFamily=Helvetica;fontSize=11;fontColor=default;labelBackgroundColor=default;endArrow=none;endFill=0;" parent="1" source="BXfX2sPfwJoqlkLl3I13-25" target="BXfX2sPfwJoqlkLl3I13-3" edge="1">
          <mxGeometry relative="1" as="geometry" />
        </mxCell>
        <mxCell id="BXfX2sPfwJoqlkLl3I13-25" value="profile_icon" style="ellipse;whiteSpace=wrap;html=1;" parent="1" vertex="1">
          <mxGeometry x="1112.5" y="60" width="110" height="50" as="geometry" />
        </mxCell>
        <mxCell id="4RAcwE54EBoy_HI3zGKQ-65" style="edgeStyle=none;rounded=0;orthogonalLoop=1;jettySize=auto;html=1;exitX=0.5;exitY=1;exitDx=0;exitDy=0;entryX=0.5;entryY=0;entryDx=0;entryDy=0;strokeColor=default;align=center;verticalAlign=middle;fontFamily=Helvetica;fontSize=11;fontColor=default;labelBackgroundColor=default;endArrow=none;endFill=0;" parent="1" source="BXfX2sPfwJoqlkLl3I13-26" target="BXfX2sPfwJoqlkLl3I13-3" edge="1">
          <mxGeometry relative="1" as="geometry" />
        </mxCell>
        <mxCell id="BXfX2sPfwJoqlkLl3I13-26" value="profile_age" style="ellipse;whiteSpace=wrap;html=1;" parent="1" vertex="1">
          <mxGeometry x="1002.5" y="60" width="110" height="50" as="geometry" />
        </mxCell>
        <mxCell id="4RAcwE54EBoy_HI3zGKQ-78" style="edgeStyle=none;rounded=0;orthogonalLoop=1;jettySize=auto;html=1;exitX=0.5;exitY=1;exitDx=0;exitDy=0;entryX=0.25;entryY=0;entryDx=0;entryDy=0;strokeColor=default;align=center;verticalAlign=middle;fontFamily=Helvetica;fontSize=11;fontColor=default;labelBackgroundColor=default;endArrow=none;endFill=0;" parent="1" source="BXfX2sPfwJoqlkLl3I13-27" target="BXfX2sPfwJoqlkLl3I13-5" edge="1">
          <mxGeometry relative="1" as="geometry" />
        </mxCell>
        <mxCell id="BXfX2sPfwJoqlkLl3I13-27" value="&lt;u&gt;title_id&lt;/u&gt;" style="ellipse;whiteSpace=wrap;html=1;" parent="1" vertex="1">
          <mxGeometry x="965" y="370" width="110" height="50" as="geometry" />
        </mxCell>
        <mxCell id="4RAcwE54EBoy_HI3zGKQ-84" style="edgeStyle=none;rounded=0;orthogonalLoop=1;jettySize=auto;html=1;exitX=0.5;exitY=1;exitDx=0;exitDy=0;entryX=0.75;entryY=0;entryDx=0;entryDy=0;strokeColor=default;align=center;verticalAlign=middle;fontFamily=Helvetica;fontSize=11;fontColor=default;labelBackgroundColor=default;endArrow=none;endFill=0;" parent="1" source="BXfX2sPfwJoqlkLl3I13-28" target="BXfX2sPfwJoqlkLl3I13-5" edge="1">
          <mxGeometry relative="1" as="geometry" />
        </mxCell>
        <mxCell id="BXfX2sPfwJoqlkLl3I13-28" value="title_name" style="ellipse;whiteSpace=wrap;html=1;" parent="1" vertex="1">
          <mxGeometry x="1130" y="400" width="110" height="50" as="geometry" />
        </mxCell>
        <mxCell id="4RAcwE54EBoy_HI3zGKQ-82" style="edgeStyle=none;rounded=0;orthogonalLoop=1;jettySize=auto;html=1;exitX=1;exitY=0;exitDx=0;exitDy=0;entryX=0;entryY=1;entryDx=0;entryDy=0;strokeColor=default;align=center;verticalAlign=middle;fontFamily=Helvetica;fontSize=11;fontColor=default;labelBackgroundColor=default;endArrow=none;endFill=0;" parent="1" source="BXfX2sPfwJoqlkLl3I13-29" target="BXfX2sPfwJoqlkLl3I13-5" edge="1">
          <mxGeometry relative="1" as="geometry" />
        </mxCell>
        <mxCell id="BXfX2sPfwJoqlkLl3I13-29" value="genre" style="ellipse;whiteSpace=wrap;html=1;" parent="1" vertex="1">
          <mxGeometry x="870" y="580" width="110" height="50" as="geometry" />
        </mxCell>
        <mxCell id="4RAcwE54EBoy_HI3zGKQ-85" style="edgeStyle=none;rounded=0;orthogonalLoop=1;jettySize=auto;html=1;exitX=0;exitY=1;exitDx=0;exitDy=0;entryX=1;entryY=0;entryDx=0;entryDy=0;strokeColor=default;align=center;verticalAlign=middle;fontFamily=Helvetica;fontSize=11;fontColor=default;labelBackgroundColor=default;endArrow=none;endFill=0;" parent="1" source="BXfX2sPfwJoqlkLl3I13-30" target="BXfX2sPfwJoqlkLl3I13-5" edge="1">
          <mxGeometry relative="1" as="geometry" />
        </mxCell>
        <mxCell id="BXfX2sPfwJoqlkLl3I13-30" value="studio" style="ellipse;whiteSpace=wrap;html=1;" parent="1" vertex="1">
          <mxGeometry x="1220" y="430" width="110" height="50" as="geometry" />
        </mxCell>
        <mxCell id="4RAcwE54EBoy_HI3zGKQ-89" style="edgeStyle=none;rounded=0;orthogonalLoop=1;jettySize=auto;html=1;exitX=0.5;exitY=0;exitDx=0;exitDy=0;entryX=0.75;entryY=1;entryDx=0;entryDy=0;strokeColor=default;align=center;verticalAlign=middle;fontFamily=Helvetica;fontSize=11;fontColor=default;labelBackgroundColor=default;endArrow=none;endFill=0;" parent="1" source="BXfX2sPfwJoqlkLl3I13-31" target="BXfX2sPfwJoqlkLl3I13-5" edge="1">
          <mxGeometry relative="1" as="geometry" />
        </mxCell>
        <mxCell id="BXfX2sPfwJoqlkLl3I13-31" value="language" style="ellipse;whiteSpace=wrap;html=1;" parent="1" vertex="1">
          <mxGeometry x="1130" y="600" width="110" height="50" as="geometry" />
        </mxCell>
        <mxCell id="4RAcwE54EBoy_HI3zGKQ-86" style="edgeStyle=none;rounded=0;orthogonalLoop=1;jettySize=auto;html=1;exitX=0;exitY=0.5;exitDx=0;exitDy=0;entryX=1;entryY=0.25;entryDx=0;entryDy=0;strokeColor=default;align=center;verticalAlign=middle;fontFamily=Helvetica;fontSize=11;fontColor=default;labelBackgroundColor=default;endArrow=none;endFill=0;" parent="1" source="BXfX2sPfwJoqlkLl3I13-32" target="BXfX2sPfwJoqlkLl3I13-5" edge="1">
          <mxGeometry relative="1" as="geometry" />
        </mxCell>
        <mxCell id="BXfX2sPfwJoqlkLl3I13-32" value="pg_rating" style="ellipse;whiteSpace=wrap;html=1;" parent="1" vertex="1">
          <mxGeometry x="1280" y="475" width="110" height="50" as="geometry" />
        </mxCell>
        <mxCell id="4RAcwE54EBoy_HI3zGKQ-81" style="edgeStyle=none;rounded=0;orthogonalLoop=1;jettySize=auto;html=1;exitX=1;exitY=0.5;exitDx=0;exitDy=0;entryX=0;entryY=0.75;entryDx=0;entryDy=0;strokeColor=default;align=center;verticalAlign=middle;fontFamily=Helvetica;fontSize=11;fontColor=default;labelBackgroundColor=default;endArrow=none;endFill=0;" parent="1" source="BXfX2sPfwJoqlkLl3I13-33" target="BXfX2sPfwJoqlkLl3I13-5" edge="1">
          <mxGeometry relative="1" as="geometry" />
        </mxCell>
        <mxCell id="BXfX2sPfwJoqlkLl3I13-33" value="image" style="ellipse;whiteSpace=wrap;html=1;" parent="1" vertex="1">
          <mxGeometry x="800" y="540" width="110" height="50" as="geometry" />
        </mxCell>
        <mxCell id="4RAcwE54EBoy_HI3zGKQ-83" style="edgeStyle=none;rounded=0;orthogonalLoop=1;jettySize=auto;html=1;exitX=0.5;exitY=0;exitDx=0;exitDy=0;entryX=0.25;entryY=1;entryDx=0;entryDy=0;strokeColor=default;align=center;verticalAlign=middle;fontFamily=Helvetica;fontSize=11;fontColor=default;labelBackgroundColor=default;endArrow=none;endFill=0;" parent="1" source="BXfX2sPfwJoqlkLl3I13-34" target="BXfX2sPfwJoqlkLl3I13-5" edge="1">
          <mxGeometry relative="1" as="geometry" />
        </mxCell>
        <mxCell id="BXfX2sPfwJoqlkLl3I13-34" value="description" style="ellipse;whiteSpace=wrap;html=1;" parent="1" vertex="1">
          <mxGeometry x="965" y="610" width="110" height="50" as="geometry" />
        </mxCell>
        <mxCell id="4RAcwE54EBoy_HI3zGKQ-88" style="edgeStyle=none;rounded=0;orthogonalLoop=1;jettySize=auto;html=1;exitX=0;exitY=0;exitDx=0;exitDy=0;entryX=1;entryY=1;entryDx=0;entryDy=0;strokeColor=default;align=center;verticalAlign=middle;fontFamily=Helvetica;fontSize=11;fontColor=default;labelBackgroundColor=default;endArrow=none;endFill=0;" parent="1" source="BXfX2sPfwJoqlkLl3I13-35" target="BXfX2sPfwJoqlkLl3I13-5" edge="1">
          <mxGeometry relative="1" as="geometry" />
        </mxCell>
        <mxCell id="BXfX2sPfwJoqlkLl3I13-35" value="rating" style="ellipse;whiteSpace=wrap;html=1;" parent="1" vertex="1">
          <mxGeometry x="1220" y="570" width="110" height="50" as="geometry" />
        </mxCell>
        <mxCell id="4RAcwE54EBoy_HI3zGKQ-80" style="edgeStyle=none;rounded=0;orthogonalLoop=1;jettySize=auto;html=1;exitX=1;exitY=1;exitDx=0;exitDy=0;strokeColor=default;align=center;verticalAlign=middle;fontFamily=Helvetica;fontSize=11;fontColor=default;labelBackgroundColor=default;endArrow=none;endFill=0;" parent="1" source="BXfX2sPfwJoqlkLl3I13-36" target="BXfX2sPfwJoqlkLl3I13-5" edge="1">
          <mxGeometry relative="1" as="geometry" />
        </mxCell>
        <mxCell id="BXfX2sPfwJoqlkLl3I13-36" value="release_date" style="ellipse;whiteSpace=wrap;html=1;" parent="1" vertex="1">
          <mxGeometry x="800" y="440" width="110" height="50" as="geometry" />
        </mxCell>
        <mxCell id="4RAcwE54EBoy_HI3zGKQ-79" style="edgeStyle=none;rounded=0;orthogonalLoop=1;jettySize=auto;html=1;exitX=1;exitY=1;exitDx=0;exitDy=0;entryX=0;entryY=0;entryDx=0;entryDy=0;strokeColor=default;align=center;verticalAlign=middle;fontFamily=Helvetica;fontSize=11;fontColor=default;labelBackgroundColor=default;endArrow=none;endFill=0;" parent="1" source="BXfX2sPfwJoqlkLl3I13-37" target="BXfX2sPfwJoqlkLl3I13-5" edge="1">
          <mxGeometry relative="1" as="geometry" />
        </mxCell>
        <mxCell id="BXfX2sPfwJoqlkLl3I13-37" value="title_type" style="ellipse;whiteSpace=wrap;html=1;" parent="1" vertex="1">
          <mxGeometry x="870" y="400" width="110" height="50" as="geometry" />
        </mxCell>
        <mxCell id="4RAcwE54EBoy_HI3zGKQ-69" style="edgeStyle=none;rounded=0;orthogonalLoop=1;jettySize=auto;html=1;exitX=0.5;exitY=1;exitDx=0;exitDy=0;entryX=0.75;entryY=0;entryDx=0;entryDy=0;strokeColor=default;align=center;verticalAlign=middle;fontFamily=Helvetica;fontSize=11;fontColor=default;labelBackgroundColor=default;endArrow=none;endFill=0;" parent="1" source="BXfX2sPfwJoqlkLl3I13-38" target="BXfX2sPfwJoqlkLl3I13-4" edge="1">
          <mxGeometry relative="1" as="geometry" />
        </mxCell>
        <mxCell id="BXfX2sPfwJoqlkLl3I13-38" value="profile_id" style="ellipse;whiteSpace=wrap;html=1;" parent="1" vertex="1">
          <mxGeometry x="1570" y="110" width="110" height="50" as="geometry" />
        </mxCell>
        <mxCell id="4RAcwE54EBoy_HI3zGKQ-68" style="edgeStyle=none;rounded=0;orthogonalLoop=1;jettySize=auto;html=1;exitX=0.5;exitY=1;exitDx=0;exitDy=0;entryX=0.25;entryY=0;entryDx=0;entryDy=0;strokeColor=default;align=center;verticalAlign=middle;fontFamily=Helvetica;fontSize=11;fontColor=default;labelBackgroundColor=default;endArrow=none;endFill=0;" parent="1" source="BXfX2sPfwJoqlkLl3I13-39" target="BXfX2sPfwJoqlkLl3I13-4" edge="1">
          <mxGeometry relative="1" as="geometry" />
        </mxCell>
        <mxCell id="BXfX2sPfwJoqlkLl3I13-39" value="&lt;u&gt;pref_id&lt;/u&gt;" style="ellipse;whiteSpace=wrap;html=1;" parent="1" vertex="1">
          <mxGeometry x="1420" y="110" width="110" height="50" as="geometry" />
        </mxCell>
        <mxCell id="4RAcwE54EBoy_HI3zGKQ-107" style="edgeStyle=none;rounded=0;orthogonalLoop=1;jettySize=auto;html=1;exitX=0.5;exitY=0;exitDx=0;exitDy=0;entryX=0.75;entryY=1;entryDx=0;entryDy=0;strokeColor=default;align=center;verticalAlign=middle;fontFamily=Helvetica;fontSize=11;fontColor=default;labelBackgroundColor=default;endArrow=none;endFill=0;" parent="1" source="BXfX2sPfwJoqlkLl3I13-40" target="BXfX2sPfwJoqlkLl3I13-4" edge="1">
          <mxGeometry relative="1" as="geometry" />
        </mxCell>
        <mxCell id="BXfX2sPfwJoqlkLl3I13-40" value="title_id" style="ellipse;whiteSpace=wrap;html=1;" parent="1" vertex="1">
          <mxGeometry x="1570" y="260" width="110" height="50" as="geometry" />
        </mxCell>
        <mxCell id="BXfX2sPfwJoqlkLl3I13-55" value="" style="whiteSpace=wrap;html=1;fillColor=#d2e63d;strokeColor=#56517e;" parent="1" vertex="1">
          <mxGeometry x="1330" y="848.75" width="120" height="40" as="geometry" />
        </mxCell>
        <mxCell id="4RAcwE54EBoy_HI3zGKQ-101" style="edgeStyle=none;rounded=0;orthogonalLoop=1;jettySize=auto;html=1;exitX=1;exitY=1;exitDx=0;exitDy=0;entryX=0;entryY=0;entryDx=0;entryDy=0;strokeColor=default;align=center;verticalAlign=middle;fontFamily=Helvetica;fontSize=11;fontColor=default;labelBackgroundColor=default;endArrow=none;endFill=0;" parent="1" source="BXfX2sPfwJoqlkLl3I13-56" target="BXfX2sPfwJoqlkLl3I13-55" edge="1">
          <mxGeometry relative="1" as="geometry" />
        </mxCell>
        <mxCell id="BXfX2sPfwJoqlkLl3I13-56" value="&lt;u&gt;review_id&lt;/u&gt;" style="ellipse;whiteSpace=wrap;html=1;" parent="1" vertex="1">
          <mxGeometry x="1220" y="778.75" width="110" height="50" as="geometry" />
        </mxCell>
        <mxCell id="4RAcwE54EBoy_HI3zGKQ-103" style="edgeStyle=none;rounded=0;orthogonalLoop=1;jettySize=auto;html=1;exitX=0.5;exitY=0;exitDx=0;exitDy=0;entryX=0.25;entryY=1;entryDx=0;entryDy=0;strokeColor=default;align=center;verticalAlign=middle;fontFamily=Helvetica;fontSize=11;fontColor=default;labelBackgroundColor=default;endArrow=none;endFill=0;" parent="1" source="BXfX2sPfwJoqlkLl3I13-57" target="BXfX2sPfwJoqlkLl3I13-55" edge="1">
          <mxGeometry relative="1" as="geometry" />
        </mxCell>
        <mxCell id="BXfX2sPfwJoqlkLl3I13-57" value="timestamp" style="ellipse;whiteSpace=wrap;html=1;" parent="1" vertex="1">
          <mxGeometry x="1280" y="911.25" width="110" height="50" as="geometry" />
        </mxCell>
        <mxCell id="4RAcwE54EBoy_HI3zGKQ-104" style="edgeStyle=none;rounded=0;orthogonalLoop=1;jettySize=auto;html=1;exitX=0.5;exitY=0;exitDx=0;exitDy=0;entryX=0.75;entryY=1;entryDx=0;entryDy=0;strokeColor=default;align=center;verticalAlign=middle;fontFamily=Helvetica;fontSize=11;fontColor=default;labelBackgroundColor=default;endArrow=none;endFill=0;" parent="1" source="BXfX2sPfwJoqlkLl3I13-58" target="BXfX2sPfwJoqlkLl3I13-55" edge="1">
          <mxGeometry relative="1" as="geometry" />
        </mxCell>
        <mxCell id="BXfX2sPfwJoqlkLl3I13-58" value="profile_id" style="ellipse;whiteSpace=wrap;html=1;" parent="1" vertex="1">
          <mxGeometry x="1400" y="911.25" width="110" height="50" as="geometry" />
        </mxCell>
        <mxCell id="4RAcwE54EBoy_HI3zGKQ-100" style="edgeStyle=none;rounded=0;orthogonalLoop=1;jettySize=auto;html=1;exitX=0;exitY=1;exitDx=0;exitDy=0;entryX=1;entryY=0;entryDx=0;entryDy=0;strokeColor=default;align=center;verticalAlign=middle;fontFamily=Helvetica;fontSize=11;fontColor=default;labelBackgroundColor=default;endArrow=none;endFill=0;" parent="1" source="BXfX2sPfwJoqlkLl3I13-59" target="BXfX2sPfwJoqlkLl3I13-55" edge="1">
          <mxGeometry relative="1" as="geometry" />
        </mxCell>
        <mxCell id="BXfX2sPfwJoqlkLl3I13-59" value="title_id" style="ellipse;whiteSpace=wrap;html=1;" parent="1" vertex="1">
          <mxGeometry x="1450" y="778.75" width="110" height="50" as="geometry" />
        </mxCell>
        <mxCell id="4RAcwE54EBoy_HI3zGKQ-102" style="edgeStyle=none;rounded=0;orthogonalLoop=1;jettySize=auto;html=1;exitX=1;exitY=0;exitDx=0;exitDy=0;entryX=0;entryY=1;entryDx=0;entryDy=0;strokeColor=default;align=center;verticalAlign=middle;fontFamily=Helvetica;fontSize=11;fontColor=default;labelBackgroundColor=default;endArrow=none;endFill=0;" parent="1" source="BXfX2sPfwJoqlkLl3I13-60" target="BXfX2sPfwJoqlkLl3I13-55" edge="1">
          <mxGeometry relative="1" as="geometry" />
        </mxCell>
        <mxCell id="BXfX2sPfwJoqlkLl3I13-60" value="review" style="ellipse;whiteSpace=wrap;html=1;" parent="1" vertex="1">
          <mxGeometry x="1160" y="913.75" width="110" height="50" as="geometry" />
        </mxCell>
        <mxCell id="4RAcwE54EBoy_HI3zGKQ-105" style="edgeStyle=none;rounded=0;orthogonalLoop=1;jettySize=auto;html=1;exitX=0;exitY=0;exitDx=0;exitDy=0;entryX=1;entryY=1;entryDx=0;entryDy=0;strokeColor=default;align=center;verticalAlign=middle;fontFamily=Helvetica;fontSize=11;fontColor=default;labelBackgroundColor=default;endArrow=none;endFill=0;" parent="1" source="BXfX2sPfwJoqlkLl3I13-61" target="BXfX2sPfwJoqlkLl3I13-55" edge="1">
          <mxGeometry relative="1" as="geometry" />
        </mxCell>
        <mxCell id="BXfX2sPfwJoqlkLl3I13-61" value="rating" style="ellipse;whiteSpace=wrap;html=1;" parent="1" vertex="1">
          <mxGeometry x="1520" y="911.25" width="110" height="50" as="geometry" />
        </mxCell>
        <mxCell id="4RAcwE54EBoy_HI3zGKQ-8" value="is linked to" style="rhombus;whiteSpace=wrap;html=1;" parent="1" vertex="1">
          <mxGeometry x="475" y="180" width="80" height="60" as="geometry" />
        </mxCell>
        <mxCell id="4RAcwE54EBoy_HI3zGKQ-13" style="edgeStyle=orthogonalEdgeStyle;rounded=0;orthogonalLoop=1;jettySize=auto;html=1;endArrow=none;endFill=0;" parent="1" source="4RAcwE54EBoy_HI3zGKQ-12" target="BXfX2sPfwJoqlkLl3I13-2" edge="1">
          <mxGeometry relative="1" as="geometry" />
        </mxCell>
        <mxCell id="4RAcwE54EBoy_HI3zGKQ-12" value="" style="rhombus;whiteSpace=wrap;html=1;" parent="1" vertex="1">
          <mxGeometry x="855" y="180" width="80" height="60" as="geometry" />
        </mxCell>
        <mxCell id="4RAcwE54EBoy_HI3zGKQ-18" style="edgeStyle=orthogonalEdgeStyle;rounded=0;orthogonalLoop=1;jettySize=auto;html=1;endArrow=none;endFill=0;exitX=0;exitY=0.5;exitDx=0;exitDy=0;" parent="1" source="Zu0Be58UdTDjaUwix9cF-13" target="BXfX2sPfwJoqlkLl3I13-3" edge="1">
          <mxGeometry relative="1" as="geometry">
            <mxPoint x="1290" y="210" as="sourcePoint" />
          </mxGeometry>
        </mxCell>
        <mxCell id="yzm3zcIePpRb3m_rD65R-18" value="1" style="edgeLabel;html=1;align=center;verticalAlign=middle;resizable=0;points=[];" parent="4RAcwE54EBoy_HI3zGKQ-18" vertex="1" connectable="0">
          <mxGeometry x="-0.0222" y="5" relative="1" as="geometry">
            <mxPoint x="-51" y="-20" as="offset" />
          </mxGeometry>
        </mxCell>
        <mxCell id="4RAcwE54EBoy_HI3zGKQ-24" style="edgeStyle=orthogonalEdgeStyle;rounded=0;orthogonalLoop=1;jettySize=auto;html=1;endArrow=none;endFill=0;" parent="1" source="4RAcwE54EBoy_HI3zGKQ-22" edge="1">
          <mxGeometry relative="1" as="geometry">
            <mxPoint x="1100" y="540" as="targetPoint" />
            <Array as="points">
              <mxPoint x="1050" y="690" />
              <mxPoint x="1100" y="690" />
              <mxPoint x="1100" y="540" />
            </Array>
          </mxGeometry>
        </mxCell>
        <mxCell id="4RAcwE54EBoy_HI3zGKQ-22" value="has" style="rhombus;whiteSpace=wrap;html=1;" parent="1" vertex="1">
          <mxGeometry x="1010" y="840" width="80" height="60" as="geometry" />
        </mxCell>
        <mxCell id="4RAcwE54EBoy_HI3zGKQ-25" style="edgeStyle=orthogonalEdgeStyle;rounded=0;orthogonalLoop=1;jettySize=auto;html=1;endArrow=none;endFill=0;" parent="1" source="4RAcwE54EBoy_HI3zGKQ-23" target="BXfX2sPfwJoqlkLl3I13-5" edge="1">
          <mxGeometry relative="1" as="geometry">
            <Array as="points">
              <mxPoint x="1170" y="689" />
              <mxPoint x="1120" y="689" />
            </Array>
          </mxGeometry>
        </mxCell>
        <mxCell id="4RAcwE54EBoy_HI3zGKQ-26" style="edgeStyle=orthogonalEdgeStyle;rounded=0;orthogonalLoop=1;jettySize=auto;html=1;endArrow=none;endFill=0;" parent="1" source="4RAcwE54EBoy_HI3zGKQ-23" target="BXfX2sPfwJoqlkLl3I13-55" edge="1">
          <mxGeometry relative="1" as="geometry" />
        </mxCell>
        <mxCell id="4RAcwE54EBoy_HI3zGKQ-23" value="can have" style="rhombus;whiteSpace=wrap;html=1;" parent="1" vertex="1">
          <mxGeometry x="1130" y="838.75" width="80" height="60" as="geometry" />
        </mxCell>
        <mxCell id="4RAcwE54EBoy_HI3zGKQ-30" style="edgeStyle=orthogonalEdgeStyle;rounded=0;orthogonalLoop=1;jettySize=auto;html=1;endArrow=none;endFill=0;" parent="1" source="4RAcwE54EBoy_HI3zGKQ-28" target="BXfX2sPfwJoqlkLl3I13-5" edge="1">
          <mxGeometry relative="1" as="geometry" />
        </mxCell>
        <mxCell id="4RAcwE54EBoy_HI3zGKQ-31" style="edgeStyle=orthogonalEdgeStyle;rounded=0;orthogonalLoop=1;jettySize=auto;html=1;endArrow=none;endFill=0;" parent="1" source="4RAcwE54EBoy_HI3zGKQ-28" target="BXfX2sPfwJoqlkLl3I13-4" edge="1">
          <mxGeometry relative="1" as="geometry" />
        </mxCell>
        <mxCell id="4RAcwE54EBoy_HI3zGKQ-28" value="refers to" style="rhombus;whiteSpace=wrap;html=1;" parent="1" vertex="1">
          <mxGeometry x="1510" y="330" width="80" height="60" as="geometry" />
        </mxCell>
        <mxCell id="ndwgXnCIKZq1DW0BV6WI-5" style="rounded=0;orthogonalLoop=1;jettySize=auto;html=1;entryX=0.5;entryY=0;entryDx=0;entryDy=0;endArrow=none;endFill=0;" parent="1" source="4RAcwE54EBoy_HI3zGKQ-40" target="BXfX2sPfwJoqlkLl3I13-7" edge="1">
          <mxGeometry relative="1" as="geometry" />
        </mxCell>
        <mxCell id="4RAcwE54EBoy_HI3zGKQ-40" value="&lt;u&gt;title_id&lt;/u&gt;" style="ellipse;whiteSpace=wrap;html=1;" parent="1" vertex="1">
          <mxGeometry x="460" y="335" width="110" height="50" as="geometry" />
        </mxCell>
        <mxCell id="ndwgXnCIKZq1DW0BV6WI-6" style="edgeStyle=none;rounded=0;orthogonalLoop=1;jettySize=auto;html=1;strokeColor=default;align=center;verticalAlign=middle;fontFamily=Helvetica;fontSize=11;fontColor=default;labelBackgroundColor=default;endArrow=none;endFill=0;" parent="1" source="4RAcwE54EBoy_HI3zGKQ-41" target="BXfX2sPfwJoqlkLl3I13-7" edge="1">
          <mxGeometry relative="1" as="geometry" />
        </mxCell>
        <mxCell id="4RAcwE54EBoy_HI3zGKQ-41" value="season_num&lt;span style=&quot;color: rgba(0, 0, 0, 0); font-family: monospace; font-size: 0px; text-align: start; text-wrap: nowrap;&quot;&gt;%3CmxGraphModel%3E%3Croot%3E%3CmxCell%20id%3D%220%22%2F%3E%3CmxCell%20id%3D%221%22%20parent%3D%220%22%2F%3E%3CmxCell%20id%3D%222%22%20value%3D%22episode_title%22%20style%3D%22ellipse%3BwhiteSpace%3Dwrap%3Bhtml%3D1%3B%22%20vertex%3D%221%22%20parent%3D%221%22%3E%3CmxGeometry%20x%3D%22320%22%20y%3D%22400%22%20width%3D%22110%22%20height%3D%2250%22%20as%3D%22geometry%22%2F%3E%3C%2FmxCell%3E%3C%2Froot%3E%3C%2FmxGraphModel%3E&lt;/span&gt;" style="ellipse;whiteSpace=wrap;html=1;" parent="1" vertex="1">
          <mxGeometry x="460" y="470" width="110" height="50" as="geometry" />
        </mxCell>
        <mxCell id="d2gvZUP5ytEfkLBGmtcK-1" style="edgeStyle=orthogonalEdgeStyle;rounded=0;orthogonalLoop=1;jettySize=auto;html=1;exitX=1;exitY=0.5;exitDx=0;exitDy=0;entryX=0;entryY=0.5;entryDx=0;entryDy=0;endArrow=none;endFill=0;" edge="1" parent="1" source="4RAcwE54EBoy_HI3zGKQ-42" target="BXfX2sPfwJoqlkLl3I13-7">
          <mxGeometry relative="1" as="geometry" />
        </mxCell>
        <mxCell id="4RAcwE54EBoy_HI3zGKQ-42" value="episode_num" style="ellipse;whiteSpace=wrap;html=1;" parent="1" vertex="1">
          <mxGeometry x="320" y="405" width="110" height="50" as="geometry" />
        </mxCell>
        <mxCell id="4RAcwE54EBoy_HI3zGKQ-87" style="edgeStyle=none;rounded=0;orthogonalLoop=1;jettySize=auto;html=1;exitX=0;exitY=0.5;exitDx=0;exitDy=0;entryX=1;entryY=0.75;entryDx=0;entryDy=0;strokeColor=default;align=center;verticalAlign=middle;fontFamily=Helvetica;fontSize=11;fontColor=default;labelBackgroundColor=default;endArrow=none;endFill=0;" parent="1" source="4RAcwE54EBoy_HI3zGKQ-43" target="BXfX2sPfwJoqlkLl3I13-5" edge="1">
          <mxGeometry relative="1" as="geometry" />
        </mxCell>
        <mxCell id="4RAcwE54EBoy_HI3zGKQ-43" value="fss_address" style="ellipse;whiteSpace=wrap;html=1;" parent="1" vertex="1">
          <mxGeometry x="1280" y="525" width="110" height="50" as="geometry" />
        </mxCell>
        <mxCell id="4RAcwE54EBoy_HI3zGKQ-47" style="edgeStyle=orthogonalEdgeStyle;rounded=0;orthogonalLoop=1;jettySize=auto;html=1;entryX=0.5;entryY=1;entryDx=0;entryDy=0;endArrow=none;endFill=0;exitX=0.5;exitY=0;exitDx=0;exitDy=0;" parent="1" source="Zu0Be58UdTDjaUwix9cF-22" target="BXfX2sPfwJoqlkLl3I13-3" edge="1">
          <mxGeometry relative="1" as="geometry">
            <Array as="points">
              <mxPoint x="1475" y="300" />
              <mxPoint x="1110" y="300" />
            </Array>
            <mxPoint x="1480" y="470" as="sourcePoint" />
          </mxGeometry>
        </mxCell>
        <mxCell id="4RAcwE54EBoy_HI3zGKQ-52" style="edgeStyle=orthogonalEdgeStyle;rounded=0;orthogonalLoop=1;jettySize=auto;html=1;entryX=0.625;entryY=0;entryDx=0;entryDy=0;entryPerimeter=0;endArrow=none;endFill=0;" parent="1" source="BXfX2sPfwJoqlkLl3I13-8" target="BXfX2sPfwJoqlkLl3I13-1" edge="1">
          <mxGeometry relative="1" as="geometry" />
        </mxCell>
        <mxCell id="4RAcwE54EBoy_HI3zGKQ-60" style="edgeStyle=none;rounded=0;orthogonalLoop=1;jettySize=auto;html=1;exitX=1;exitY=1;exitDx=0;exitDy=0;entryX=0.366;entryY=0.017;entryDx=0;entryDy=0;entryPerimeter=0;strokeColor=default;align=center;verticalAlign=middle;fontFamily=Helvetica;fontSize=11;fontColor=default;labelBackgroundColor=default;endArrow=none;endFill=0;" parent="1" source="BXfX2sPfwJoqlkLl3I13-19" target="BXfX2sPfwJoqlkLl3I13-2" edge="1">
          <mxGeometry relative="1" as="geometry" />
        </mxCell>
        <mxCell id="4RAcwE54EBoy_HI3zGKQ-61" style="edgeStyle=none;rounded=0;orthogonalLoop=1;jettySize=auto;html=1;exitX=0;exitY=1;exitDx=0;exitDy=0;entryX=0.61;entryY=0.029;entryDx=0;entryDy=0;entryPerimeter=0;strokeColor=default;align=center;verticalAlign=middle;fontFamily=Helvetica;fontSize=11;fontColor=default;labelBackgroundColor=default;endArrow=none;endFill=0;" parent="1" source="BXfX2sPfwJoqlkLl3I13-13" target="BXfX2sPfwJoqlkLl3I13-2" edge="1">
          <mxGeometry relative="1" as="geometry" />
        </mxCell>
        <mxCell id="ndwgXnCIKZq1DW0BV6WI-4" style="rounded=0;orthogonalLoop=1;jettySize=auto;html=1;entryX=0;entryY=0.5;entryDx=0;entryDy=0;shape=link;" parent="1" source="ndwgXnCIKZq1DW0BV6WI-3" target="BXfX2sPfwJoqlkLl3I13-5" edge="1">
          <mxGeometry relative="1" as="geometry" />
        </mxCell>
        <mxCell id="ndwgXnCIKZq1DW0BV6WI-8" style="edgeStyle=none;rounded=0;orthogonalLoop=1;jettySize=auto;html=1;exitX=0;exitY=0;exitDx=0;exitDy=0;entryX=1;entryY=0.5;entryDx=0;entryDy=0;strokeColor=default;align=center;verticalAlign=middle;fontFamily=Helvetica;fontSize=11;fontColor=default;labelBackgroundColor=default;endArrow=none;endFill=0;" parent="1" source="ndwgXnCIKZq1DW0BV6WI-3" target="BXfX2sPfwJoqlkLl3I13-7" edge="1">
          <mxGeometry relative="1" as="geometry" />
        </mxCell>
        <mxCell id="ndwgXnCIKZq1DW0BV6WI-3" value="d" style="ellipse;whiteSpace=wrap;html=1;" parent="1" vertex="1">
          <mxGeometry x="710" y="500" width="40" height="40" as="geometry" />
        </mxCell>
        <mxCell id="d2gvZUP5ytEfkLBGmtcK-2" style="edgeStyle=orthogonalEdgeStyle;rounded=0;orthogonalLoop=1;jettySize=auto;html=1;exitX=1;exitY=0.5;exitDx=0;exitDy=0;entryX=0;entryY=0.5;entryDx=0;entryDy=0;endArrow=none;endFill=0;" edge="1" parent="1" source="ndwgXnCIKZq1DW0BV6WI-11" target="BXfX2sPfwJoqlkLl3I13-6">
          <mxGeometry relative="1" as="geometry" />
        </mxCell>
        <mxCell id="ndwgXnCIKZq1DW0BV6WI-11" value="length" style="ellipse;whiteSpace=wrap;html=1;" parent="1" vertex="1">
          <mxGeometry x="320" y="605" width="110" height="50" as="geometry" />
        </mxCell>
        <mxCell id="ndwgXnCIKZq1DW0BV6WI-17" value="" style="edgeStyle=none;rounded=0;orthogonalLoop=1;jettySize=auto;html=1;strokeColor=default;align=center;verticalAlign=middle;fontFamily=Helvetica;fontSize=11;fontColor=default;labelBackgroundColor=default;endArrow=none;endFill=0;" parent="1" source="ndwgXnCIKZq1DW0BV6WI-15" target="BXfX2sPfwJoqlkLl3I13-1" edge="1">
          <mxGeometry relative="1" as="geometry" />
        </mxCell>
        <mxCell id="ndwgXnCIKZq1DW0BV6WI-15" value="subscription_rate" style="ellipse;whiteSpace=wrap;html=1;" parent="1" vertex="1">
          <mxGeometry x="170" y="185" width="110" height="50" as="geometry" />
        </mxCell>
        <mxCell id="ndwgXnCIKZq1DW0BV6WI-18" style="edgeStyle=none;rounded=0;orthogonalLoop=1;jettySize=auto;html=1;exitX=1;exitY=0;exitDx=0;exitDy=0;entryX=0.25;entryY=1;entryDx=0;entryDy=0;strokeColor=default;align=center;verticalAlign=middle;fontFamily=Helvetica;fontSize=11;fontColor=default;labelBackgroundColor=default;endArrow=none;endFill=0;" parent="1" source="ndwgXnCIKZq1DW0BV6WI-16" target="BXfX2sPfwJoqlkLl3I13-1" edge="1">
          <mxGeometry relative="1" as="geometry" />
        </mxCell>
        <mxCell id="ndwgXnCIKZq1DW0BV6WI-16" value="subscription_start" style="ellipse;whiteSpace=wrap;html=1;" parent="1" vertex="1">
          <mxGeometry x="190" y="250" width="110" height="50" as="geometry" />
        </mxCell>
        <mxCell id="yzm3zcIePpRb3m_rD65R-21" value="" style="html=1;rounded=0;entryX=0;entryY=0.5;entryDx=0;entryDy=0;endArrow=none;endFill=0;" parent="1" target="4RAcwE54EBoy_HI3zGKQ-8" edge="1">
          <mxGeometry relative="1" as="geometry">
            <mxPoint x="420" y="210" as="sourcePoint" />
            <mxPoint x="560" y="270" as="targetPoint" />
          </mxGeometry>
        </mxCell>
        <mxCell id="yzm3zcIePpRb3m_rD65R-22" value="1" style="resizable=0;html=1;whiteSpace=wrap;align=right;verticalAlign=bottom;" parent="yzm3zcIePpRb3m_rD65R-21" connectable="0" vertex="1">
          <mxGeometry x="1" relative="1" as="geometry">
            <mxPoint x="-40" as="offset" />
          </mxGeometry>
        </mxCell>
        <mxCell id="yzm3zcIePpRb3m_rD65R-23" value="" style="shape=link;html=1;rounded=0;entryX=0;entryY=0.5;entryDx=0;entryDy=0;exitX=1;exitY=0.5;exitDx=0;exitDy=0;" parent="1" source="4RAcwE54EBoy_HI3zGKQ-12" target="BXfX2sPfwJoqlkLl3I13-3" edge="1">
          <mxGeometry relative="1" as="geometry">
            <mxPoint x="930" y="210" as="sourcePoint" />
            <mxPoint x="1020" y="205" as="targetPoint" />
          </mxGeometry>
        </mxCell>
        <mxCell id="yzm3zcIePpRb3m_rD65R-24" value="N" style="resizable=0;html=1;whiteSpace=wrap;align=right;verticalAlign=bottom;" parent="yzm3zcIePpRb3m_rD65R-23" connectable="0" vertex="1">
          <mxGeometry x="1" relative="1" as="geometry" />
        </mxCell>
        <mxCell id="yzm3zcIePpRb3m_rD65R-25" value="" style="shape=link;html=1;rounded=0;exitX=1;exitY=0.5;exitDx=0;exitDy=0;" parent="1" source="Zu0Be58UdTDjaUwix9cF-13" edge="1">
          <mxGeometry relative="1" as="geometry">
            <mxPoint x="1370" y="210" as="sourcePoint" />
            <mxPoint x="1490" y="210" as="targetPoint" />
          </mxGeometry>
        </mxCell>
        <mxCell id="yzm3zcIePpRb3m_rD65R-26" value="N" style="resizable=0;html=1;whiteSpace=wrap;align=right;verticalAlign=bottom;" parent="yzm3zcIePpRb3m_rD65R-25" connectable="0" vertex="1">
          <mxGeometry x="1" relative="1" as="geometry" />
        </mxCell>
        <mxCell id="Z1mTCkMB_beaj9DuFXbW-6" value="" style="endArrow=none;html=1;rounded=0;shape=link;" parent="1" edge="1">
          <mxGeometry relative="1" as="geometry">
            <mxPoint x="555" y="208.89" as="sourcePoint" />
            <mxPoint x="630" y="209" as="targetPoint" />
          </mxGeometry>
        </mxCell>
        <mxCell id="Z1mTCkMB_beaj9DuFXbW-7" value="N" style="resizable=0;html=1;whiteSpace=wrap;align=right;verticalAlign=bottom;" parent="Z1mTCkMB_beaj9DuFXbW-6" connectable="0" vertex="1">
          <mxGeometry x="1" relative="1" as="geometry" />
        </mxCell>
        <mxCell id="vrzXfEo0QwejCYVP26nB-2" value="Credits" style="whiteSpace=wrap;html=1;fillColor=#b0e3e6;strokeColor=#0e8088;" parent="1" vertex="1">
          <mxGeometry x="437.5" y="851.25" width="120" height="40" as="geometry" />
        </mxCell>
        <mxCell id="Zu0Be58UdTDjaUwix9cF-9" style="edgeStyle=none;rounded=0;orthogonalLoop=1;jettySize=auto;html=1;exitX=0.5;exitY=1;exitDx=0;exitDy=0;entryX=0.25;entryY=0;entryDx=0;entryDy=0;strokeColor=default;align=center;verticalAlign=middle;fontFamily=Helvetica;fontSize=11;fontColor=default;labelBackgroundColor=default;endArrow=none;endFill=0;" parent="1" source="vrzXfEo0QwejCYVP26nB-4" target="vrzXfEo0QwejCYVP26nB-2" edge="1">
          <mxGeometry relative="1" as="geometry" />
        </mxCell>
        <mxCell id="vrzXfEo0QwejCYVP26nB-4" value="&lt;u&gt;credit_id&lt;/u&gt;" style="ellipse;whiteSpace=wrap;html=1;" parent="1" vertex="1">
          <mxGeometry x="372.5" y="778.75" width="110" height="50" as="geometry" />
        </mxCell>
        <mxCell id="vrzXfEo0QwejCYVP26nB-7" style="edgeStyle=none;rounded=0;orthogonalLoop=1;jettySize=auto;html=1;exitX=0.5;exitY=0;exitDx=0;exitDy=0;entryX=0.75;entryY=1;entryDx=0;entryDy=0;strokeColor=default;align=center;verticalAlign=middle;fontFamily=Helvetica;fontSize=11;fontColor=default;labelBackgroundColor=default;endArrow=none;endFill=0;" parent="1" source="vrzXfEo0QwejCYVP26nB-8" target="vrzXfEo0QwejCYVP26nB-2" edge="1">
          <mxGeometry relative="1" as="geometry" />
        </mxCell>
        <mxCell id="vrzXfEo0QwejCYVP26nB-45" style="edgeStyle=none;rounded=0;orthogonalLoop=1;jettySize=auto;html=1;exitX=0.5;exitY=1;exitDx=0;exitDy=0;entryX=0.5;entryY=0;entryDx=0;entryDy=0;strokeColor=default;align=center;verticalAlign=middle;fontFamily=Helvetica;fontSize=11;fontColor=default;labelBackgroundColor=default;endArrow=none;endFill=0;" parent="1" source="vrzXfEo0QwejCYVP26nB-8" target="vrzXfEo0QwejCYVP26nB-22" edge="1">
          <mxGeometry relative="1" as="geometry" />
        </mxCell>
        <mxCell id="vrzXfEo0QwejCYVP26nB-8" value="DOB" style="ellipse;whiteSpace=wrap;html=1;" parent="1" vertex="1">
          <mxGeometry x="512.5" y="920" width="110" height="50" as="geometry" />
        </mxCell>
        <mxCell id="Zu0Be58UdTDjaUwix9cF-8" style="edgeStyle=none;rounded=0;orthogonalLoop=1;jettySize=auto;html=1;exitX=0.5;exitY=0;exitDx=0;exitDy=0;entryX=0.25;entryY=1;entryDx=0;entryDy=0;strokeColor=default;align=center;verticalAlign=middle;fontFamily=Helvetica;fontSize=11;fontColor=default;labelBackgroundColor=default;endArrow=none;endFill=0;" parent="1" source="vrzXfEo0QwejCYVP26nB-12" target="vrzXfEo0QwejCYVP26nB-2" edge="1">
          <mxGeometry relative="1" as="geometry" />
        </mxCell>
        <mxCell id="vrzXfEo0QwejCYVP26nB-12" value="name" style="ellipse;whiteSpace=wrap;html=1;" parent="1" vertex="1">
          <mxGeometry x="372.5" y="920" width="110" height="50" as="geometry" />
        </mxCell>
        <mxCell id="Zu0Be58UdTDjaUwix9cF-6" style="edgeStyle=none;rounded=0;orthogonalLoop=1;jettySize=auto;html=1;exitX=0.5;exitY=0;exitDx=0;exitDy=0;entryX=0.5;entryY=1;entryDx=0;entryDy=0;strokeColor=default;align=center;verticalAlign=middle;fontFamily=Helvetica;fontSize=11;fontColor=default;labelBackgroundColor=default;endArrow=none;endFill=0;" parent="1" source="vrzXfEo0QwejCYVP26nB-15" target="vrzXfEo0QwejCYVP26nB-12" edge="1">
          <mxGeometry relative="1" as="geometry" />
        </mxCell>
        <mxCell id="vrzXfEo0QwejCYVP26nB-15" value="fname" style="ellipse;whiteSpace=wrap;html=1;" parent="1" vertex="1">
          <mxGeometry x="372.5" y="990" width="110" height="50" as="geometry" />
        </mxCell>
        <mxCell id="Zu0Be58UdTDjaUwix9cF-7" style="edgeStyle=none;rounded=0;orthogonalLoop=1;jettySize=auto;html=1;exitX=1;exitY=0.5;exitDx=0;exitDy=0;entryX=0;entryY=0.5;entryDx=0;entryDy=0;strokeColor=default;align=center;verticalAlign=middle;fontFamily=Helvetica;fontSize=11;fontColor=default;labelBackgroundColor=default;endArrow=none;endFill=0;" parent="1" source="vrzXfEo0QwejCYVP26nB-17" target="vrzXfEo0QwejCYVP26nB-12" edge="1">
          <mxGeometry relative="1" as="geometry" />
        </mxCell>
        <mxCell id="vrzXfEo0QwejCYVP26nB-17" value="sname" style="ellipse;whiteSpace=wrap;html=1;" parent="1" vertex="1">
          <mxGeometry x="250" y="920" width="110" height="50" as="geometry" />
        </mxCell>
        <mxCell id="Zu0Be58UdTDjaUwix9cF-10" style="edgeStyle=none;rounded=0;orthogonalLoop=1;jettySize=auto;html=1;exitX=0.5;exitY=1;exitDx=0;exitDy=0;entryX=0.75;entryY=0;entryDx=0;entryDy=0;strokeColor=default;align=center;verticalAlign=middle;fontFamily=Helvetica;fontSize=11;fontColor=default;labelBackgroundColor=default;endArrow=none;endFill=0;" parent="1" source="vrzXfEo0QwejCYVP26nB-19" target="vrzXfEo0QwejCYVP26nB-2" edge="1">
          <mxGeometry relative="1" as="geometry" />
        </mxCell>
        <mxCell id="vrzXfEo0QwejCYVP26nB-19" value="biography" style="ellipse;whiteSpace=wrap;html=1;" parent="1" vertex="1">
          <mxGeometry x="512.5" y="778.75" width="110" height="50" as="geometry" />
        </mxCell>
        <mxCell id="vrzXfEo0QwejCYVP26nB-22" value="age" style="ellipse;whiteSpace=wrap;html=1;align=center;dashed=1;" parent="1" vertex="1">
          <mxGeometry x="557.5" y="990" width="55" height="30" as="geometry" />
        </mxCell>
        <mxCell id="Zu0Be58UdTDjaUwix9cF-2" style="rounded=0;orthogonalLoop=1;jettySize=auto;html=1;exitX=0.5;exitY=0;exitDx=0;exitDy=0;entryX=0.25;entryY=1;entryDx=0;entryDy=0;endArrow=none;endFill=0;" parent="1" source="vrzXfEo0QwejCYVP26nB-32" target="vrzXfEo0QwejCYVP26nB-46" edge="1">
          <mxGeometry relative="1" as="geometry" />
        </mxCell>
        <mxCell id="vrzXfEo0QwejCYVP26nB-32" value="credit_type" style="ellipse;whiteSpace=wrap;html=1;" parent="1" vertex="1">
          <mxGeometry x="760" y="913.75" width="110" height="50" as="geometry" />
        </mxCell>
        <mxCell id="vrzXfEo0QwejCYVP26nB-53" style="edgeStyle=none;rounded=0;orthogonalLoop=1;jettySize=auto;html=1;exitX=1;exitY=0.5;exitDx=0;exitDy=0;entryX=0;entryY=0.5;entryDx=0;entryDy=0;strokeColor=default;align=center;verticalAlign=middle;fontFamily=Helvetica;fontSize=11;fontColor=default;labelBackgroundColor=default;endArrow=none;endFill=0;" parent="1" source="vrzXfEo0QwejCYVP26nB-46" target="4RAcwE54EBoy_HI3zGKQ-22" edge="1">
          <mxGeometry relative="1" as="geometry" />
        </mxCell>
        <mxCell id="vrzXfEo0QwejCYVP26nB-46" value="Title_Credits" style="whiteSpace=wrap;html=1;fillColor=#b0e3e6;strokeColor=#090b0c;gradientColor=#B296DE;gradientDirection=east;" parent="1" vertex="1">
          <mxGeometry x="822.5" y="851.25" width="120" height="40" as="geometry" />
        </mxCell>
        <mxCell id="vrzXfEo0QwejCYVP26nB-51" style="edgeStyle=none;rounded=0;orthogonalLoop=1;jettySize=auto;html=1;exitX=0;exitY=1;exitDx=0;exitDy=0;entryX=0.75;entryY=0;entryDx=0;entryDy=0;strokeColor=default;align=center;verticalAlign=middle;fontFamily=Helvetica;fontSize=11;fontColor=default;labelBackgroundColor=default;endArrow=none;endFill=0;" parent="1" source="vrzXfEo0QwejCYVP26nB-47" target="vrzXfEo0QwejCYVP26nB-46" edge="1">
          <mxGeometry relative="1" as="geometry" />
        </mxCell>
        <mxCell id="vrzXfEo0QwejCYVP26nB-47" value="credit_id" style="ellipse;whiteSpace=wrap;html=1;" parent="1" vertex="1">
          <mxGeometry x="910" y="778.75" width="110" height="50" as="geometry" />
        </mxCell>
        <mxCell id="vrzXfEo0QwejCYVP26nB-56" style="edgeStyle=none;rounded=0;orthogonalLoop=1;jettySize=auto;html=1;exitX=0.5;exitY=1;exitDx=0;exitDy=0;entryX=0.25;entryY=0;entryDx=0;entryDy=0;strokeColor=default;align=center;verticalAlign=middle;fontFamily=Helvetica;fontSize=11;fontColor=default;labelBackgroundColor=default;endArrow=none;endFill=0;" parent="1" source="vrzXfEo0QwejCYVP26nB-48" target="vrzXfEo0QwejCYVP26nB-46" edge="1">
          <mxGeometry relative="1" as="geometry" />
        </mxCell>
        <mxCell id="vrzXfEo0QwejCYVP26nB-48" value="&lt;u&gt;title_credit_id&lt;/u&gt;" style="ellipse;whiteSpace=wrap;html=1;" parent="1" vertex="1">
          <mxGeometry x="740" y="778.75" width="110" height="50" as="geometry" />
        </mxCell>
        <mxCell id="Zu0Be58UdTDjaUwix9cF-5" style="edgeStyle=none;rounded=0;orthogonalLoop=1;jettySize=auto;html=1;exitX=0.5;exitY=0;exitDx=0;exitDy=0;entryX=0.75;entryY=1;entryDx=0;entryDy=0;strokeColor=default;align=center;verticalAlign=middle;fontFamily=Helvetica;fontSize=11;fontColor=default;labelBackgroundColor=default;endArrow=none;endFill=0;" parent="1" source="vrzXfEo0QwejCYVP26nB-49" target="vrzXfEo0QwejCYVP26nB-46" edge="1">
          <mxGeometry relative="1" as="geometry" />
        </mxCell>
        <mxCell id="vrzXfEo0QwejCYVP26nB-49" value="title_id" style="ellipse;whiteSpace=wrap;html=1;" parent="1" vertex="1">
          <mxGeometry x="905" y="913.75" width="110" height="50" as="geometry" />
        </mxCell>
        <mxCell id="vrzXfEo0QwejCYVP26nB-58" style="edgeStyle=none;rounded=0;orthogonalLoop=1;jettySize=auto;html=1;exitX=1;exitY=0.5;exitDx=0;exitDy=0;entryX=0;entryY=0.5;entryDx=0;entryDy=0;strokeColor=default;align=center;verticalAlign=middle;fontFamily=Helvetica;fontSize=11;fontColor=default;labelBackgroundColor=default;endArrow=none;endFill=0;" parent="1" source="vrzXfEo0QwejCYVP26nB-57" target="vrzXfEo0QwejCYVP26nB-46" edge="1">
          <mxGeometry relative="1" as="geometry" />
        </mxCell>
        <mxCell id="vrzXfEo0QwejCYVP26nB-59" style="edgeStyle=none;rounded=0;orthogonalLoop=1;jettySize=auto;html=1;exitX=0;exitY=0.5;exitDx=0;exitDy=0;entryX=1;entryY=0.5;entryDx=0;entryDy=0;strokeColor=default;align=center;verticalAlign=middle;fontFamily=Helvetica;fontSize=11;fontColor=default;labelBackgroundColor=default;endArrow=none;endFill=0;" parent="1" source="vrzXfEo0QwejCYVP26nB-57" target="vrzXfEo0QwejCYVP26nB-2" edge="1">
          <mxGeometry relative="1" as="geometry" />
        </mxCell>
        <mxCell id="vrzXfEo0QwejCYVP26nB-57" value="has" style="rhombus;whiteSpace=wrap;html=1;" parent="1" vertex="1">
          <mxGeometry x="650" y="841.25" width="80" height="60" as="geometry" />
        </mxCell>
        <mxCell id="vrzXfEo0QwejCYVP26nB-60" value="N" style="resizable=0;html=1;whiteSpace=wrap;align=right;verticalAlign=bottom;" parent="1" connectable="0" vertex="1">
          <mxGeometry x="822.501434322016" y="871.2502221036724" as="geometry" />
        </mxCell>
        <mxCell id="vrzXfEo0QwejCYVP26nB-61" value="1" style="resizable=0;html=1;whiteSpace=wrap;align=right;verticalAlign=bottom;" parent="1" connectable="0" vertex="1">
          <mxGeometry x="585.001434322016" y="870.0002221036724" as="geometry" />
        </mxCell>
        <mxCell id="vrzXfEo0QwejCYVP26nB-62" value="N" style="resizable=0;html=1;whiteSpace=wrap;align=right;verticalAlign=bottom;" parent="1" connectable="0" vertex="1">
          <mxGeometry x="960.001434322016" y="871.2502221036724" as="geometry" />
        </mxCell>
        <mxCell id="vrzXfEo0QwejCYVP26nB-63" value="1" style="resizable=0;html=1;whiteSpace=wrap;align=right;verticalAlign=bottom;" parent="1" connectable="0" vertex="1">
          <mxGeometry x="1070.001434322016" y="833.7502221036724" as="geometry" />
        </mxCell>
        <mxCell id="vrzXfEo0QwejCYVP26nB-64" value="1" style="resizable=0;html=1;whiteSpace=wrap;align=right;verticalAlign=bottom;" parent="1" connectable="0" vertex="1">
          <mxGeometry x="1185.001434322016" y="833.7502221036724" as="geometry" />
        </mxCell>
        <mxCell id="vrzXfEo0QwejCYVP26nB-65" value="N" style="resizable=0;html=1;whiteSpace=wrap;align=right;verticalAlign=bottom;" parent="1" connectable="0" vertex="1">
          <mxGeometry x="1320.001434322016" y="867.5002221036724" as="geometry" />
        </mxCell>
        <mxCell id="Zu0Be58UdTDjaUwix9cF-4" style="edgeStyle=none;rounded=0;orthogonalLoop=1;jettySize=auto;html=1;exitX=0.5;exitY=1;exitDx=0;exitDy=0;entryX=0.5;entryY=0;entryDx=0;entryDy=0;strokeColor=default;align=center;verticalAlign=middle;fontFamily=Helvetica;fontSize=11;fontColor=default;labelBackgroundColor=default;endArrow=none;endFill=0;" parent="1" source="Zu0Be58UdTDjaUwix9cF-3" target="vrzXfEo0QwejCYVP26nB-46" edge="1">
          <mxGeometry relative="1" as="geometry" />
        </mxCell>
        <mxCell id="Zu0Be58UdTDjaUwix9cF-3" value="role" style="ellipse;whiteSpace=wrap;html=1;" parent="1" vertex="1">
          <mxGeometry x="827.5" y="740" width="110" height="50" as="geometry" />
        </mxCell>
        <mxCell id="Zu0Be58UdTDjaUwix9cF-11" value="Profile" style="whiteSpace=wrap;html=1;fillColor=#d5e8d4;strokeColor=#82b366;" parent="1" vertex="1">
          <mxGeometry x="1055" y="195" width="110" height="30" as="geometry" />
        </mxCell>
        <mxCell id="Zu0Be58UdTDjaUwix9cF-12" value="has" style="rhombus;whiteSpace=wrap;html=1;" parent="1" vertex="1">
          <mxGeometry x="860" y="185" width="70" height="50" as="geometry" />
        </mxCell>
        <mxCell id="Zu0Be58UdTDjaUwix9cF-13" value="" style="rhombus;whiteSpace=wrap;html=1;" parent="1" vertex="1">
          <mxGeometry x="1290" y="180" width="80" height="60" as="geometry" />
        </mxCell>
        <mxCell id="Zu0Be58UdTDjaUwix9cF-14" value="can have" style="rhombus;whiteSpace=wrap;html=1;" parent="1" vertex="1">
          <mxGeometry x="1295" y="185" width="70" height="50" as="geometry" />
        </mxCell>
        <mxCell id="Zu0Be58UdTDjaUwix9cF-15" value="1" style="edgeLabel;html=1;align=center;verticalAlign=middle;resizable=0;points=[];" parent="1" vertex="1" connectable="0">
          <mxGeometry x="950.0033333333336" y="210" as="geometry">
            <mxPoint x="-192" y="-15" as="offset" />
          </mxGeometry>
        </mxCell>
        <mxCell id="Zu0Be58UdTDjaUwix9cF-16" value="N" style="resizable=0;html=1;whiteSpace=wrap;align=right;verticalAlign=bottom;" parent="1" connectable="0" vertex="1">
          <mxGeometry x="1390.001434322016" y="848.7502221036724" as="geometry" />
        </mxCell>
        <mxCell id="Zu0Be58UdTDjaUwix9cF-17" value="1" style="resizable=0;html=1;whiteSpace=wrap;align=right;verticalAlign=bottom;" parent="1" connectable="0" vertex="1">
          <mxGeometry x="1130.001434322016" y="250.0002221036724" as="geometry" />
        </mxCell>
        <mxCell id="Zu0Be58UdTDjaUwix9cF-18" value="1" style="resizable=0;html=1;whiteSpace=wrap;align=right;verticalAlign=bottom;" parent="1" connectable="0" vertex="1">
          <mxGeometry x="1510.001434322016" y="385.0002221036724" as="geometry" />
        </mxCell>
        <mxCell id="Zu0Be58UdTDjaUwix9cF-19" value="N" style="resizable=0;html=1;whiteSpace=wrap;align=right;verticalAlign=bottom;" parent="1" connectable="0" vertex="1">
          <mxGeometry x="1540" y="250" as="geometry" />
        </mxCell>
        <mxCell id="Zu0Be58UdTDjaUwix9cF-20" value="Preferences" style="whiteSpace=wrap;html=1;fillColor=#ffe6cc;strokeColor=#d79b00;" parent="1" vertex="1">
          <mxGeometry x="1495" y="196.25" width="110" height="27.5" as="geometry" />
        </mxCell>
        <mxCell id="Zu0Be58UdTDjaUwix9cF-24" style="edgeStyle=orthogonalEdgeStyle;rounded=0;orthogonalLoop=1;jettySize=auto;html=1;entryX=0.5;entryY=1;entryDx=0;entryDy=0;strokeColor=default;align=center;verticalAlign=middle;fontFamily=Helvetica;fontSize=11;fontColor=default;labelBackgroundColor=default;endArrow=none;endFill=0;" parent="1" source="Zu0Be58UdTDjaUwix9cF-21" target="Zu0Be58UdTDjaUwix9cF-22" edge="1">
          <mxGeometry relative="1" as="geometry" />
        </mxCell>
        <mxCell id="Zu0Be58UdTDjaUwix9cF-21" value="Review" style="whiteSpace=wrap;html=1;fillColor=#d2e63d;strokeColor=#56517e;" parent="1" vertex="1">
          <mxGeometry x="1335" y="853.13" width="110" height="31.25" as="geometry" />
        </mxCell>
        <mxCell id="Zu0Be58UdTDjaUwix9cF-22" value="" style="rhombus;whiteSpace=wrap;html=1;" parent="1" vertex="1">
          <mxGeometry x="1435" y="490" width="80" height="60" as="geometry" />
        </mxCell>
        <mxCell id="Zu0Be58UdTDjaUwix9cF-23" value="can have" style="rhombus;whiteSpace=wrap;html=1;" parent="1" vertex="1">
          <mxGeometry x="1440" y="495" width="70" height="50" as="geometry" />
        </mxCell>
        <mxCell id="Zu0Be58UdTDjaUwix9cF-27" style="edgeStyle=none;rounded=0;orthogonalLoop=1;jettySize=auto;html=1;exitX=0.5;exitY=1;exitDx=0;exitDy=0;entryX=0.5;entryY=0;entryDx=0;entryDy=0;strokeColor=default;align=center;verticalAlign=middle;fontFamily=Helvetica;fontSize=11;fontColor=default;labelBackgroundColor=default;endArrow=none;endFill=0;" parent="1" source="Zu0Be58UdTDjaUwix9cF-26" target="BXfX2sPfwJoqlkLl3I13-6" edge="1">
          <mxGeometry relative="1" as="geometry" />
        </mxCell>
        <mxCell id="Zu0Be58UdTDjaUwix9cF-26" value="&lt;u&gt;title_id&lt;/u&gt;" style="ellipse;whiteSpace=wrap;html=1;" parent="1" vertex="1">
          <mxGeometry x="460" y="540" width="110" height="50" as="geometry" />
        </mxCell>
      </root>
    </mxGraphModel>
  </diagram>
</mxfile>
